<svg width="26" height="26" viewBox="0 0 26 26" fill="none" xmlns="http://www.w3.org/2000/svg">
<path d="M23.7071 5.72139L24.4142 5.01429L23.7071 4.30718L21.6928 2.29289L20.9857 1.58579L20.2786 2.29289L13 9.5715L5.72139 2.29289L5.01429 1.58579L4.30718 2.29289L2.29289 4.30718L1.58579 5.01429L2.29289 5.72139L9.5715 13L2.29289 20.2786L1.58579 20.9857L2.29289 21.6928L4.30718 23.7071L5.01429 24.4142L5.72139 23.7071L13 16.4285L20.2786 23.7071L20.9857 24.4142L21.6928 23.7071L23.7071 21.6928L24.4142 20.9857L23.7071 20.2786L16.4285 13L23.7071 5.72139Z" fill="white" stroke="white" stroke-width="2"/>
</svg>
