<svg width="16" height="16" viewBox="0 0 16 16" fill="none" xmlns="http://www.w3.org/2000/svg">
<g clip-path="url(#clip0)">
<g filter="url(#filter0_d)">
<path d="M4.77353 6.51821L4.51293 6.77613L4.68058 7.10221C5.62752 8.94404 7.15145 10.4447 9.00805 11.3861L9.32963 11.5492L9.5859 11.2956L10.9576 9.93799C10.9911 9.90488 11.042 9.89469 11.0812 9.90799L11.0812 9.90802L11.0865 9.90975C11.8349 10.1545 12.6418 10.2862 13.4678 10.2862C13.5395 10.2862 13.5913 10.3449 13.5913 10.4033V12.557C13.5913 12.6154 13.5395 12.6741 13.4678 12.6741C7.88431 12.6741 3.36815 8.19701 3.36815 2.68356C3.36815 2.62517 3.41998 2.56647 3.49166 2.56647H5.67394C5.74562 2.56647 5.79745 2.62517 5.79745 2.68356C5.79745 3.50735 5.93039 4.29966 6.17698 5.04008C6.18377 5.06274 6.18386 5.08406 6.17952 5.10241C6.17527 5.12038 6.1657 5.14038 6.14526 5.16061L4.77353 6.51821Z" stroke="white"/>
</g>
</g>
<defs>
<filter id="filter0_d" x="-1.13185" y="2.06647" width="19.2232" height="19.1076" filterUnits="userSpaceOnUse" color-interpolation-filters="sRGB">
<feFlood flood-opacity="0" result="BackgroundImageFix"/>
<feColorMatrix in="SourceAlpha" type="matrix" values="0 0 0 0 0 0 0 0 0 0 0 0 0 0 0 0 0 0 127 0"/>
<feOffset dy="4"/>
<feGaussianBlur stdDeviation="2"/>
<feColorMatrix type="matrix" values="0 0 0 0 0 0 0 0 0 0 0 0 0 0 0 0 0 0 0.25 0"/>
<feBlend mode="normal" in2="BackgroundImageFix" result="effect1_dropShadow"/>
<feBlend mode="normal" in="SourceGraphic" in2="effect1_dropShadow" result="shape"/>
</filter>
<clipPath id="clip0">
<rect width="14.9642" height="14.8101" fill="white" transform="translate(0.99762 0.215195)"/>
</clipPath>
</defs>
</svg>
